{"asset":{"version":"2.0","generator":"VECTARY"},"nodes":[{"translation":[0.09198311888839873,0.3793598943691243,5.684341886080802e-17],"scale":[0.001,0.001,0.001],"rotation":[-0.7071067811865475,0,0,0.7071067811865476],"name":"3D Text 2 - A","mesh":0},{"translation":[0.12045968138839874,0.3793598943691243,5.684341886080802e-17],"scale":[0.001,0.001,0.001],"rotation":[-0.7071067811865475,0,0,0.7071067811865476],"name":"3D Text 2 - 5","mesh":1},{"translation":[-0.13863556952096473,0.21397475412528527,4.263256414560601e-17],"scale":[0.001,0.001,0.001],"rotation":[-0.7070923156076203,0.004522964586810706,-0.004522964586810706,0.7070923156076204],"name":"3D Text 1 - A","mesh":2},{"translation":[-0.11016133722488795,0.2136104644528229,4.263256414560601e-17],"scale":[0.001,0.001,0.001],"rotation":[-0.7070923156076203,0.004522964586810706,-0.004522964586810706,0.7070923156076204],"name":"3D Text 1 - 3","mesh":3},{"translation":[0.12193052213325854,0.14296991288989916,2.842170943040401e-17],"scale":[0.001,0.001,0.001],"rotation":[-0.7071067811865475,0,0,0.7071067811865476],"name":"3D Text - A","mesh":4},{"translation":[0.15040708463325853,0.14296991288989916,2.842170943040401e-17],"scale":[0.001,0.001,0.001],"rotation":[-0.7071067811865475,0,0,0.7071067811865476],"name":"3D Text - 4","mesh":5},{"translation":[0.1186196157628076,0.29903858989856663,5.684341886080802e-17],"scale":[0.00148,0.00001,0.0021000000000000003],"rotation":[-0.7071067811865475,0,0,0.7071067811865476],"name":"Box 2","mesh":6},{"translation":[-0.10630913042238592,0,0],"scale":[0.0029700027177549824,0.000010000009150690177,0.0042000038432898745],"rotation":[-0.7071067811865475,0,0,0.7071067811865476],"name":"Box 1","mesh":7},{"translation":[0.14825846443100366,0,0],"scale":[0.0021000000000000003,0.00001,0.0029700000000000004],"rotation":[-0.7071067811865475,0,0,0.7071067811865476],"name":"Box","mesh":8}],"materials":[{"pbrMetallicRoughness":{"baseColorFactor":[1,1,1,1],"metallicFactor":0,"roughnessFactor":0.2},"name":"Free Spirit","emissiveFactor":[0,0,0],"alphaMode":"OPAQUE","doubleSided":false},{"pbrMetallicRoughness":{"baseColorFactor":[1,1,1,1],"metallicFactor":0,"roughnessFactor":0.2},"name":"Free Spirit0","emissiveFactor":[0,0,0],"alphaMode":"OPAQUE","doubleSided":false},{"pbrMetallicRoughness":{"baseColorFactor":[1,1,1,1],"metallicFactor":0,"roughnessFactor":0.2},"name":"Distant Valley","emissiveFactor":[0,0,0],"alphaMode":"OPAQUE","doubleSided":false},{"pbrMetallicRoughness":{"baseColorFactor":[1,1,1,1],"metallicFactor":0,"roughnessFactor":0.2},"name":"Distant Valley0","emissiveFactor":[0,0,0],"alphaMode":"OPAQUE","doubleSided":false},{"pbrMetallicRoughness":{"baseColorFactor":[1,1,1,1],"metallicFactor":0,"roughnessFactor":0.2},"name":"Ballon","emissiveFactor":[0,0,0],"alphaMode":"OPAQUE","doubleSided":false},{"pbrMetallicRoughness":{"baseColorFactor":[1,1,1,1],"metallicFactor":0,"roughnessFactor":0.2},"name":"Ballon0","emissiveFactor":[0,0,0],"alphaMode":"OPAQUE","doubleSided":false},{"pbrMetallicRoughness":{"baseColorFactor":[1,1,1,1],"baseColorTexture":{"index":0,"extensions":{"KHR_texture_transform":{"offset":[0,0],"scale":[1,1],"rotation":0}},"texCoord":0},"metallicRoughnessTexture":{"index":2,"extensions":{"KHR_texture_transform":{"offset":[0,0],"scale":[1,1],"rotation":0}},"texCoord":0},"metallicFactor":1,"roughnessFactor":1},"name":"Wood 1","normalTexture":{"index":1,"scale":1,"extensions":{"KHR_texture_transform":{"offset":[0,0],"scale":[1,1],"rotation":0}},"texCoord":0},"emissiveFactor":[0,0,0],"alphaMode":"OPAQUE","doubleSided":false},{"pbrMetallicRoughness":{"baseColorFactor":[0.06190747560545576,0.18014428915439032,0.1668722718907655,1],"baseColorTexture":{"index":3,"extensions":{"KHR_texture_transform":{"offset":[0,0],"scale":[1,1],"rotation":0}},"texCoord":0},"metallicRoughnessTexture":{"index":5,"extensions":{"KHR_texture_transform":{"offset":[0,0],"scale":[1,1],"rotation":0}},"texCoord":0},"metallicFactor":0.05,"roughnessFactor":1},"name":"Wood Editable","normalTexture":{"index":4,"scale":0.53,"extensions":{"KHR_texture_transform":{"offset":[0,0],"scale":[1,1],"rotation":0}},"texCoord":0},"emissiveFactor":[0,0,0],"alphaMode":"OPAQUE","doubleSided":false},{"pbrMetallicRoughness":{"baseColorFactor":[1,1,1,1],"baseColorTexture":{"index":6,"extensions":{"KHR_texture_transform":{"offset":[0,0],"scale":[1,1],"rotation":0}},"texCoord":0},"metallicRoughnessTexture":{"index":8,"extensions":{"KHR_texture_transform":{"offset":[0,0],"scale":[1,1],"rotation":0}},"texCoord":0},"metallicFactor":0,"roughnessFactor":1},"name":"Wood","normalTexture":{"index":7,"scale":0.2,"extensions":{"KHR_texture_transform":{"offset":[0,0],"scale":[1,1],"rotation":0}},"texCoord":0},"emissiveFactor":[0,0,0],"alphaMode":"OPAQUE","doubleSided":false}],"meshes":[{"primitives":[{"mode":4,"attributes":{"POSITION":1,"NORMAL":2},"material":0,"indices":0}]},{"primitives":[{"mode":4,"attributes":{"POSITION":4,"NORMAL":5},"material":1,"indices":3}]},{"primitives":[{"mode":4,"attributes":{"POSITION":7,"NORMAL":8},"material":2,"indices":6}]},{"primitives":[{"mode":4,"attributes":{"POSITION":10,"NORMAL":11},"material":3,"indices":9}]},{"primitives":[{"mode":4,"attributes":{"POSITION":13,"NORMAL":14},"material":4,"indices":12}]},{"primitives":[{"mode":4,"attributes":{"POSITION":16,"NORMAL":17},"material":5,"indices":15}]},{"primitives":[{"mode":4,"attributes":{"POSITION":19,"NORMAL":20,"TEXCOORD_0":21},"material":6,"indices":18}]},{"primitives":[{"mode":4,"attributes":{"POSITION":23,"NORMAL":24,"TEXCOORD_0":25},"material":7,"indices":22}]},{"primitives":[{"mode":4,"attributes":{"POSITION":27,"NORMAL":28,"TEXCOORD_0":29},"material":8,"indices":26}]}],"accessors":[{"bufferView":0,"byteOffset":0,"componentType":5125,"count":252,"type":"SCALAR"},{"bufferView":1,"byteOffset":0,"componentType":5126,"count":172,"max":[31.640625,2.1945575460086695e-15,35.83984375],"min":[0,-15,0],"type":"VEC3"},{"bufferView":2,"byteOffset":0,"componentType":5126,"count":172,"type":"VEC3"},{"bufferView":3,"byteOffset":0,"componentType":5125,"count":792,"type":"SCALAR"},{"bufferView":4,"byteOffset":0,"componentType":5126,"count":528,"max":[25.7080078125,2.18558789061372e-15,35.693359375],"min":[3.2470703125,-15,-0.48828125],"type":"VEC3"},{"bufferView":5,"byteOffset":0,"componentType":5126,"count":528,"type":"VEC3"},{"bufferView":6,"byteOffset":0,"componentType":5125,"count":252,"type":"SCALAR"},{"bufferView":7,"byteOffset":0,"componentType":5126,"count":172,"max":[31.640625,2.1945575460086695e-15,35.83984375],"min":[0,-15,0],"type":"VEC3"},{"bufferView":8,"byteOffset":0,"componentType":5126,"count":172,"type":"VEC3"},{"bufferView":9,"byteOffset":0,"componentType":5125,"count":1380,"type":"SCALAR"},{"bufferView":10,"byteOffset":0,"componentType":5126,"count":920,"max":[25.6591796875,2.216981472737806e-15,36.2060546875],"min":[2.294921875,-15,-0.48828125],"type":"VEC3"},{"bufferView":11,"byteOffset":0,"componentType":5126,"count":920,"type":"VEC3"},{"bufferView":12,"byteOffset":0,"componentType":5125,"count":252,"type":"SCALAR"},{"bufferView":13,"byteOffset":0,"componentType":5126,"count":172,"max":[31.640625,2.1945575460086695e-15,35.83984375],"min":[0,-15,0],"type":"VEC3"},{"bufferView":14,"byteOffset":0,"componentType":5126,"count":172,"type":"VEC3"},{"bufferView":15,"byteOffset":0,"componentType":5125,"count":300,"type":"SCALAR"},{"bufferView":16,"byteOffset":0,"componentType":5126,"count":186,"max":[27.587890625,2.1975473605542403e-15,35.888671875],"min":[1.0498046875,-15,0],"type":"VEC3"},{"bufferView":17,"byteOffset":0,"componentType":5126,"count":186,"type":"VEC3"},{"bufferView":18,"byteOffset":0,"componentType":5125,"count":900,"type":"SCALAR"},{"bufferView":19,"byteOffset":0,"componentType":5126,"count":212,"max":[50,50,100],"min":[-50,-50,0],"type":"VEC3"},{"bufferView":20,"byteOffset":0,"componentType":5126,"count":212,"type":"VEC3"},{"bufferView":21,"byteOffset":0,"componentType":5126,"count":212,"type":"VEC2"},{"bufferView":22,"byteOffset":0,"componentType":5125,"count":900,"type":"SCALAR"},{"bufferView":23,"byteOffset":0,"componentType":5126,"count":212,"max":[50,50,100],"min":[-50,-50,0],"type":"VEC3"},{"bufferView":24,"byteOffset":0,"componentType":5126,"count":212,"type":"VEC3"},{"bufferView":25,"byteOffset":0,"componentType":5126,"count":212,"type":"VEC2"},{"bufferView":26,"byteOffset":0,"componentType":5125,"count":900,"type":"SCALAR"},{"bufferView":27,"byteOffset":0,"componentType":5126,"count":212,"max":[50,50,100],"min":[-50,-50,0],"type":"VEC3"},{"bufferView":28,"byteOffset":0,"componentType":5126,"count":212,"type":"VEC3"},{"bufferView":29,"byteOffset":0,"componentType":5126,"count":212,"type":"VEC2"}],"bufferViews":[{"buffer":0,"byteOffset":0,"byteLength":1008,"target":34963},{"buffer":0,"byteOffset":1008,"byteLength":2064,"target":34962},{"buffer":0,"byteOffset":3072,"byteLength":2064,"target":34962},{"buffer":0,"byteOffset":5136,"byteLength":3168,"target":34963},{"buffer":0,"byteOffset":8304,"byteLength":6336,"target":34962},{"buffer":0,"byteOffset":14640,"byteLength":6336,"target":34962},{"buffer":0,"byteOffset":20976,"byteLength":1008,"target":34963},{"buffer":0,"byteOffset":21984,"byteLength":2064,"target":34962},{"buffer":0,"byteOffset":24048,"byteLength":2064,"target":34962},{"buffer":0,"byteOffset":26112,"byteLength":5520,"target":34963},{"buffer":0,"byteOffset":31632,"byteLength":11040,"target":34962},{"buffer":0,"byteOffset":42672,"byteLength":11040,"target":34962},{"buffer":0,"byteOffset":53712,"byteLength":1008,"target":34963},{"buffer":0,"byteOffset":54720,"byteLength":2064,"target":34962},{"buffer":0,"byteOffset":56784,"byteLength":2064,"target":34962},{"buffer":0,"byteOffset":58848,"byteLength":1200,"target":34963},{"buffer":0,"byteOffset":60048,"byteLength":2232,"target":34962},{"buffer":0,"byteOffset":62280,"byteLength":2232,"target":34962},{"buffer":0,"byteOffset":64512,"byteLength":3600,"target":34963},{"buffer":0,"byteOffset":68112,"byteLength":2544,"target":34962},{"buffer":0,"byteOffset":70656,"byteLength":2544,"target":34962},{"buffer":0,"byteOffset":73200,"byteLength":1696,"target":34962},{"buffer":0,"byteOffset":74896,"byteLength":3600,"target":34963},{"buffer":0,"byteOffset":78496,"byteLength":2544,"target":34962},{"buffer":0,"byteOffset":81040,"byteLength":2544,"target":34962},{"buffer":0,"byteOffset":83584,"byteLength":1696,"target":34962},{"buffer":0,"byteOffset":85280,"byteLength":3600,"target":34963},{"buffer":0,"byteOffset":88880,"byteLength":2544,"target":34962},{"buffer":0,"byteOffset":91424,"byteLength":2544,"target":34962},{"buffer":0,"byteOffset":93968,"byteLength":1696,"target":34962}],"textures":[{"sampler":0,"source":0},{"sampler":0,"source":1},{"sampler":0,"source":2},{"sampler":0,"source":3},{"sampler":0,"source":4},{"sampler":0,"source":5},{"sampler":0,"source":6},{"sampler":0,"source":7},{"sampler":0,"source":8}],"images":[{"uri":"Wood_024_base_1.jpg","mimeType":"image/jpeg"},{"uri":"Wood_024_Normal_1.jpg","mimeType":"image/jpeg"},{"uri":"Wood_024_Metalic_1&Wood_024_Rough_1.jpg","mimeType":"image/jpeg"},{"uri":"wood_Wood_009_Color_1.jpg","mimeType":"image/jpeg"},{"uri":"Wood_005_NormalMap.jpg","mimeType":"image/jpeg"},{"uri":"metallicTexture&wood_Wood_009_Roughness.jpg","mimeType":"image/jpeg"},{"uri":"wood_Wood_006_Color.jpg","mimeType":"image/jpeg"},{"uri":"wood_Wood_006_NormalMap.jpg","mimeType":"image/jpeg"},{"uri":"metallicTexture&wood_Wood_006_Roughness_3.jpg","mimeType":"image/jpeg"}],"samplers":[{"wrapS":10497,"wrapT":10497}],"scene":0,"scenes":[{"nodes":[0,1,2,3,4,5,6,7,8],"name":"Paper Size"}],"extensionsUsed":["KHR_texture_transform"],"buffers":[{"byteLength":95664,"uri":"PaperSize.bin"}]}